<svg width="18" height="19" viewBox="0 0 18 19" fill="none" xmlns="http://www.w3.org/2000/svg">
<path d="M10.9516 11.057L12.2116 8.87897C12.2926 8.74398 12.2566 8.57298 12.1396 8.47398L10.8076 7.42999C10.8346 7.23199 10.8526 7.02499 10.8526 6.818C10.8526 6.611 10.8346 6.404 10.8076 6.197L12.1396 5.15302C12.2566 5.05402 12.2926 4.88302 12.2116 4.74802L10.9516 2.57004C10.8706 2.43505 10.7086 2.38105 10.5646 2.43505L8.99859 3.06504C8.67459 2.81304 8.3236 2.60604 7.9366 2.44405L7.7026 0.779063C7.6756 0.635065 7.5406 0.518066 7.38761 0.518066H4.86763C4.71463 0.518066 4.57964 0.635065 4.55264 0.788063L4.31864 2.45305C3.94064 2.61504 3.58065 2.82204 3.25665 3.07404L1.69067 2.44405C1.54667 2.39005 1.38467 2.44405 1.30367 2.57904L0.0436842 4.75702C-0.037315 4.89202 -0.00131521 5.06302 0.115684 5.16201L1.44767 6.206C1.42067 6.404 1.40267 6.611 1.40267 6.818C1.40267 7.02499 1.42067 7.23199 1.44767 7.43899L0.115684 8.48298C-0.00131521 8.58198 -0.037315 8.75298 0.0436842 8.88797L1.30367 11.066C1.38467 11.2009 1.54667 11.2549 1.69067 11.2009L3.25665 10.571C3.58065 10.823 3.93164 11.03 4.31864 11.1919L4.55264 12.8569C4.57964 13.0009 4.71463 13.1179 4.86763 13.1179H7.38761C7.5406 13.1179 7.6756 13.0009 7.7026 12.8479L7.9366 11.1829C8.3146 11.021 8.67459 10.814 8.99859 10.562L10.5646 11.1919C10.7086 11.2459 10.8706 11.1919 10.9516 11.057ZM6.12762 8.61798C5.13763 8.61798 4.32764 7.80799 4.32764 6.818C4.32764 5.82801 5.13763 5.01802 6.12762 5.01802C7.11761 5.01802 7.9276 5.82801 7.9276 6.818C7.9276 7.80799 7.11761 8.61798 6.12762 8.61798Z" fill="#034C72"/>
<path d="M17.9264 15.5209L17.0624 14.8549C17.0804 14.7289 17.0984 14.5939 17.0984 14.4589C17.0984 14.3239 17.0894 14.1889 17.0624 14.0629L17.9174 13.3969C17.9894 13.3339 18.0164 13.2259 17.9624 13.1359L17.1524 11.741C17.1074 11.651 16.9994 11.624 16.9004 11.651L15.9014 12.056C15.6944 11.894 15.4694 11.759 15.2174 11.66L15.0644 10.598C15.0554 10.49 14.9654 10.418 14.8754 10.418H13.2645C13.1655 10.418 13.0755 10.49 13.0665 10.589L12.9135 11.651C12.6705 11.759 12.4365 11.885 12.2295 12.047L11.2305 11.642C11.1405 11.606 11.0325 11.642 10.9785 11.732L10.1685 13.1269C10.1235 13.2169 10.1325 13.3249 10.2135 13.3879L11.0685 14.0539C11.0505 14.1799 11.0415 14.3149 11.0415 14.4499C11.0415 14.5849 11.0505 14.7199 11.0685 14.8459L10.2135 15.5119C10.1415 15.5749 10.1145 15.6829 10.1685 15.7729L10.9785 17.1679C11.0235 17.2579 11.1315 17.2849 11.2305 17.2579L12.2295 16.8529C12.4365 17.0149 12.6615 17.1499 12.9135 17.2489L13.0665 18.3109C13.0845 18.4099 13.1655 18.4819 13.2645 18.4819H14.8754C14.9744 18.4819 15.0644 18.4099 15.0734 18.3109L15.2264 17.2489C15.4694 17.1409 15.7034 17.0149 15.9014 16.8529L16.9094 17.2579C16.9994 17.2939 17.1074 17.2579 17.1614 17.1679L17.9714 15.7729C18.0254 15.6919 17.9984 15.5839 17.9264 15.5209ZM14.0655 15.6649C13.3995 15.6649 12.8505 15.1249 12.8505 14.4499C12.8505 13.7749 13.3905 13.2349 14.0655 13.2349C14.7404 13.2349 15.2804 13.7749 15.2804 14.4499C15.2804 15.1249 14.7314 15.6649 14.0655 15.6649Z" fill="#034C72"/>
</svg>
