<svg width="13" height="14" viewBox="0 0 13 14" fill="none" xmlns="http://www.w3.org/2000/svg">
<path d="M6.5 0.5C2.912 0.5 0 3.412 0 7C0 10.588 2.912 13.5 6.5 13.5C10.088 13.5 13 10.588 13 7C13 3.412 10.088 0.5 6.5 0.5ZM7.4165 10.9585V12.2H5.681V10.9455C4.5695 10.7115 3.627 9.9965 3.5555 8.7355H4.8295C4.8945 9.418 5.3625 9.951 6.552 9.951C7.826 9.951 8.112 9.314 8.112 8.9175C8.112 8.378 7.826 7.871 6.3765 7.5265C4.7645 7.1365 3.6595 6.4735 3.6595 5.141C3.6595 4.023 4.563 3.295 5.681 3.0545V1.8H7.4165V3.0675C8.6255 3.36 9.23 4.2765 9.269 5.271H7.995C7.9625 4.5495 7.579 4.0555 6.552 4.0555C5.577 4.0555 4.992 4.4975 4.992 5.1215C4.992 5.6675 5.4145 6.025 6.7275 6.363C8.0405 6.701 9.4445 7.2665 9.4445 8.9045C9.438 10.094 8.5475 10.744 7.4165 10.9585Z" fill="#034C72"/>
</svg>
