<svg width="18" height="14" viewBox="0 0 18 14" fill="none" xmlns="http://www.w3.org/2000/svg">
<path d="M15.7382 4.32373C14.6294 4.32373 14.01 5.42488 14.2624 6.2431L11.5477 8.96539C11.3183 8.89657 10.9818 8.89657 10.7524 8.96539L8.80249 7.01543C9.06248 6.19722 8.44308 5.08842 7.32664 5.08842C6.21784 5.08842 5.5908 6.18957 5.85079 7.01543L2.36381 10.4948C1.54559 10.2424 0.444443 10.8618 0.444443 11.9706C0.444443 12.8118 1.13266 13.5 1.97382 13.5C3.08262 13.5 3.70201 12.3988 3.44967 11.5806L6.929 8.09364C7.15841 8.16247 7.49487 8.16247 7.72428 8.09364L9.67423 10.0436C9.41424 10.8618 10.0336 11.9706 11.1501 11.9706C12.2589 11.9706 12.8859 10.8695 12.6259 10.0436L15.3482 7.32896C16.1664 7.5813 17.2676 6.96191 17.2676 5.85311C17.2676 5.01195 16.5794 4.32373 15.7382 4.32373Z" fill="#B7B7B7"/>
<path d="M11.1501 5.08813L11.8689 3.50522L13.4441 2.79406L11.8689 2.0829L11.1501 0.5L10.4466 2.0829L8.85602 2.79406L10.4466 3.50522L11.1501 5.08813Z" fill="#B7B7B7"/>
<path d="M2.35616 6.61836L2.73851 5.08899L4.26788 4.70664L2.73851 4.3243L2.35616 2.79492L1.97382 4.3243L0.444443 4.70664L1.97382 5.08899L2.35616 6.61836Z" fill="#B7B7B7"/>
</svg>
